<?xml version="1.0" encoding="UTF-8"?>
<svg width="104.99mm" height="41.961mm" version="1.1" viewBox="0 0 104.99 41.961" xmlns="http://www.w3.org/2000/svg">
 <g transform="translate(-7.0543 -69.266)">
  <path d="m104.26 92.783q0.59462 0.50452 1.4055 0.39642 0.82887-0.10809 1.3694-0.41445 1.0091-0.6667 1.7298-2.1082 0.72076-1.4595 0.88293-2.3605 0.036-0.32428-0.1802-0.41445-0.21623-0.10809-0.50454 0.27023-1.892 2.4506-1.91 0.61265 0.0181-0.45047 0.16218-1.0451 0.23425-0.86489 0.14415-1.6577-0.0721-0.79282-1.1352-1.0631-0.50453-0.10809-0.91897-0.01813 0.77482-0.54057 0.99105-1.874-0.1081-1.4415-1.0091-1.9641-0.90094-0.52255-1.8199-0.57661-2.0362-0.14415-4.0723 1.6938-2.0361 1.8379-3.2614 5.2976-1.1352 3.5317-0.64868 6.3066 0.48651 2.7569 2.3785 3.4957 1.6037 0.4685 3.3335-0.79282 1.7298-1.2614 3.0632-3.784zm0.32435-7.4418q-0.88293 0.72074-1.1892 2.1623-0.2883 1.4235-0.0901 2.883-0.63066 1.1532-1.3514 1.7298-0.70274 0.57659-1.3334 0.39639-0.79284-0.32428-0.91897-1.6938-0.12612-1.3694 0.45047-3.1533 0.63067-1.8019 1.5496-2.883 0.93698-1.0811 1.7659-0.88293 0.43245 0.1802 0.50453 0.63066 0.0721 0.45048 0.0181 0.81086 0.2883 0.05405 0.59463 0zm-15.388 4.2345q-0.93699 3.1173-1.0451 5.1534-0.10813 2.0361 1.0992 2.5227 1.3875 0.43244 2.7929-0.59462 1.4055-1.0271 2.5947-2.7389 1.2073-1.7298 1.9821-3.3515 0.77482-1.6217 0.90095-2.3605 0.03602-0.32428-0.1802-0.43244-0.21622-0.10809-0.50453 0.28837-0.25228 0.41442-0.50453 0.79282-0.86491 1.3875-1.5316 2.3064-0.6667 0.91897-1.0631 0.97302-0.61264 0.01743-0.55859-0.55857 0.07207-0.59466 0.52255-1.7118 1.2253-3.4416 0.39642-5.8742-0.81085-2.4326-2.829-2.7389-1.7659-0.1802-3.3695 0.48651-1.5857 0.6667-2.6128 1.892-0.10813-0.82887-0.55859-1.6938-0.45048-0.88293-1.5316-1.1352-0.84689-0.21622-2.2884 0.14415-1.4235 0.34238-2.6128 2.0181 0.0901-0.97302-0.45048-1.5136-0.52255-0.54057-1.0811-0.70274-1.3514-0.3784-2.4686-0.01813-1.0992 0.34238-1.4595 1.0811 0.90095 0.97302 0.88293 2.9371-0.01813 1.9461-0.90095 4.5408-0.2883 0.82887-0.54057 1.5316-0.81085 2.1803-1.0451 3.4596-0.23425 1.2793 0.45048 2.1443 0.82887 0.97302 1.9821 1.0631 1.1712 0.07218 2.1803-0.50455 1.0271-0.59462 1.4235-1.6217-1.0631-0.52255-0.6667-2.1983 0.41444-1.6938 1.4055-3.9822 0.07207-0.18027 0.14415-0.3784 1.2253-2.9191 2.0902-3.5678 0.88293-0.66671 1.0811 0.57663 0.21622 1.2433-0.52255 4.0542-0.2883 1.0091-0.55859 1.874-0.55859 1.6397-0.73878 2.865-0.1802 1.2253 0.50453 2.1262 0.68472 0.79282 1.8199 0.7568 1.1532-0.03592 2.1082-0.63067 0.97302-0.59462 1.0992-1.5316-0.39642-0.10809-0.32435-1.1352 0.07207-1.0271 0.36038-2.2704 0.2883-1.2433 0.57661-2.0542 1.4415-3.838 2.5407-4.8111 1.0992-0.97302 1.4595 0.30636 0.36038 1.2793-0.45048 4.2164zm-24.704 6.8832q-0.84689 0.61265-1.8019 0.97302-0.93698 0.3604-1.91 0.61265-1.2433 0.34241-2.3605 0.8289-1.0992 0.50452-1.892 1.5496-1.2433 1.838-0.77482 3.7119 0.45048 1.892 1.9821 2.883 0.90095 0.57663 2.5587 0.7568 1.6577 0.18027 3.4957-0.43245 1.8379-0.61264 3.3155-2.4145 1.4776-1.8019 2.0181-5.1715 0.14415-0.97302 0.1802-2.0902 1.5677-1.3694 2.5767-3.3155 1.0271-1.946 1.5316-3.6579 0.52255-1.7298 0.63066-2.4145 0.01813-0.19806-0.0901-0.34241-0.10813-0.14401-0.2883-0.10809-0.16218 0.03592-0.30632 0.3065-1.0271 1.9641-1.9821 3.4236-0.93698 1.4595-2.0902 2.4145-0.07207-1.6037-0.16218-2.6848-0.14415-2.1442 0.30632-4.1263 0.45047-2.0001 1.2433-3.2975 0.81085-1.3154 1.6938-1.4235-0.46849-1.5316-1.4415-2.1262-0.955-0.59463-2.0722-0.3784-1.1172 0.21622-2.0361 1.0992-0.81085 0.86491-1.2793 2.2704-0.46849 1.4055-0.6667 2.847-0.1982 1.4415-0.16218 2.3785-0.14415 2.2884-0.73878 3.4957-0.57661 1.2073-1.7478 1.1352-0.955-0.16214-0.955-1.6938 0-1.5496 0.55859-3.5678 0.32435-1.1712 0.57661-2.0361 0.63066-2.1082 0.70274-3.1173 0.0901-1.0091-0.61265-1.928-0.48651-0.63066-1.4776-0.84689-0.99104-0.23425-1.9821 0.16218-0.97302 0.39642-1.4415 1.5677 0.57661 0.68472 0.57661 2.3064 0 1.6217-0.48651 3.4056-1.0992 3.8561-0.7568 6.5229 0.34238 2.6668 2.4145 3.3876 1.2974 0.43244 2.829-0.08996 1.5496-0.54057 2.6128-2.5046 0 0-0.2883 1.7298zm-0.52255 3.1894q-0.64868 2.5587-2.0181 2.811-0.81086 0.10809-1.0451-0.52255-0.21622-0.63067 0.2883-1.2073 0.63066-0.61264 1.2613-0.81084 0.64868-0.19806 1.2613-0.25245 0.12612 0 0.25228-0.01743zm-13.244-10.163q-0.97302 3.0993-1.1172 5.2255-0.12612 2.1082 1.0992 2.6128 1.3694 0.43244 2.7569-0.59462 1.4055-1.0451 2.5767-2.7569 1.1893-1.7118 1.9461-3.3335 0.77482-1.6217 0.90095-2.3605 0.03605-0.34241-0.1802-0.43244-0.21622-0.10809-0.50453 0.27023-0.16218 0.27024-0.34238 0.54057-0.91897 1.4776-1.6577 2.4866-0.72076 0.99104-1.1352 1.0631-0.61265 0.01743-0.55859-0.55857 0.07207-0.59462 0.52255-1.7118 1.3154-3.4416 1.0992-5.9823-0.21622-2.5587-2.0542-3.2614-1.2433-0.43246-2.883 0-1.6217 0.41444-2.865 2.1983 0.10813-1.0811-0.59463-1.7298-0.70274-0.6667-1.5857-0.72076-0.90095-0.0901-1.8379 0.16218-0.91897 0.23425-1.4235 1.0631 0.90095 0.90095 0.86491 2.9912-0.01813 2.0902-0.90095 4.703-0.32435 0.97302-0.61265 1.7659-0.7568 2.0001-0.955 3.1353-0.21622 1.1352 0.39642 2.0181 0.77482 1.0811 1.9821 1.1892 1.2073 0.10809 2.2704-0.52255 1.0811-0.63068 1.4776-1.7298-0.97302-0.45047-0.77482-1.7839 0.1982-1.3334 0.88293-3.2795 0.21622-0.64867 0.43246-1.3334 1.1172-3.4236 2.0902-4.3065 0.99104-0.88293 1.2793 0.45047 0.30632 1.3334-0.59462 4.5228zm-26.902-5.2435q-4.0723-0.3784-7.1535 0.64868-3.0812 1.0271-4.9372 2.847-1.856 1.8199-2.2163 3.82-0.36038 2.0001 1.0091 3.5858 1.5316 1.6217 3.8741 1.8019 2.3605 0.18027 4.8651-0.86492 2.5227-1.0451 4.5228-3.1173 2.0181-2.0902 2.883-4.9912 0.55859 0.12623 1.3334 0.27023 1.0811 0.18027 1.856 0.39639 0 0.21619 0 0.48653-0.01813 1.4775 0.10813 3.8921 0.14415 2.4145 0.77481 4.9912 0.63066 2.5947 2.0902 4.6129 1.4595 2.0181 4.0723 2.7029 3.0452 0.68473 4.9012 0.0174 1.856-0.6667 2.7929-1.9821 0.95501-1.3154 1.2613-2.6127 0.30632-1.2793 0.23425-1.8199-1.1172 0.03592-3.4957-0.18027-2.3785-0.21619-3.9462-0.99105-0.93699-0.50452-1.91-1.4415-0.955-0.93696-1.6037-2.5587-0.64868-1.6217-0.63066-4.1804 4.4327 1.1892 6.7571-2.0181 0.88293-1.2433 0.81085-2.847-0.07207-1.6217-1.0811-2.9011-1.0091-1.2793-2.9731-1.5316-0.01813 1.1172-0.95501 2.2704-0.93698 1.1532-2.5767 1.3154 0.07207-0.81085 0.3784-3.0272 0.25228-1.8379 0.46849-3.6218 0.23425-1.7839 0.21622-2.5407-0.12612-1.7298-1.5496-1.9641-1.4055-0.25228-3.4777 1.5677-2.0542 1.8199-4.0903 6.2526-0.61265 1.3334-1.2073 2.1623-0.59463 0.81085-1.0091 1.1893-0.39642 0.36038-0.39642 0.36038zm-1.4776 2.883q-0.27027 0.5586-0.84689 1.2974-0.55859 0.72078-1.4776 1.2974-0.90095 0.5586-2.1623 0.59462-1.5496-0.05405-1.4595-0.91897 0.0901-0.88292 1.6217-1.6577 1.5496-0.79282 4.3246-0.61265zm9.6221-10.469-0.01813 0.01813q-1.2253 2.6308-1.7478 7.8743-1.2073 0.03602-2.5227-0.01813 1.2073-3.2795 2.1983-4.9913 0.99104-1.7298 2.0902-2.883z"/>
  <path d="m108.16 101.71h-3.2534v1.3056h2.9865v1.0678h-2.9865v1.5808h3.4036v1.1053h-4.6591v-6.1482h4.5089zm-7.0574 0.83004q-0.14599-0.62983-0.71325-0.88009-0.317-0.13764-0.70491-0.13764-0.74245 0-1.2221 0.56309-0.4755 0.55892-0.4755 1.6851 0 1.1345 0.51721 1.6059 0.51721 0.47133 1.1762 0.47133 0.64651 0 1.0595-0.37123 0.41293-0.3754 0.50887-0.9802h-1.4223v-1.0261h2.561v3.2993h-0.8509l-0.1293-0.76747q-0.37122 0.43796-0.66737 0.61731-0.50887 0.31283-1.2513 0.31283-1.2221 0-2.0021-0.84673-0.81336-0.85089-0.81336-2.3274 0-1.4932 0.8217-2.3942 0.8217-0.90095 2.1731-0.90095 1.1721 0 1.8812 0.59646 0.71325 0.59229 0.81752 1.4807zm-1.439-2.0772m-8.8635 0.1585h1.3055v3.779q0 0.634 0.15016 0.92597 0.23358 0.51722 1.0177 0.51722 0.77999 0 1.0136-0.51722 0.15016-0.29197 0.15016-0.92597v-3.779h1.3055v3.779q0 0.98019-0.30449 1.5266-0.56726 1.0011-2.1648 1.0011t-2.169-1.0011q-0.30449-0.54641-0.30449-1.5266zm2.4734 0m-7.6914 8e-3h4.3588v1.0803h-3.0824v1.414h2.6987v1.0678h-2.6987v2.5777h-1.2763zm-1.1512 1.0803h-3.2534v1.3055h2.9865v1.0678h-2.9865v1.5808h3.4036v1.1053h-4.6591v-6.1482h4.5089zm-9.4308-0.0208v1.6517h1.4557q0.43379 0 0.65069-0.1001 0.38374-0.17518 0.38374-0.6924 0-0.55892-0.37122-0.75079-0.20855-0.10845-0.62566-0.10845zm1.7602-1.0678q0.64651 0.0125 0.99271 0.1585 0.35037 0.14599 0.59229 0.42962 0.20021 0.23358 0.317 0.51721 0.11679 0.28364 0.11679 0.64652 0 0.43796-0.22107 0.86341-0.22107 0.42128-0.72994 0.59646 0.42545 0.17102 0.60063 0.48802 0.17936 0.31283 0.17936 0.95934v0.41293q0 0.42128 0.03337 0.57144 0.05005 0.23775 0.23358 0.35037v0.15433h-1.414q-0.0584-0.20438-0.08342-0.32951-0.05005-0.25861-0.05423-0.52973l-0.0083-0.57143q-0.0083-0.58812-0.2169-0.78417-0.20438-0.19604-0.77165-0.19604h-1.3264v2.4109h-1.2555v-6.1482z"/>
 </g>
</svg>
